<svg width="32" height="14" viewBox="0 0 32 14" fill="none" xmlns="http://www.w3.org/2000/svg">
<path opacity="0.3" fill-rule="evenodd" clip-rule="evenodd" d="M8.08694 0.174591C8.21999 0.222649 8.34083 0.293076 8.44256 0.381836C8.54454 0.470383 8.62545 0.575562 8.68066 0.691368C8.73586 0.807167 8.76428 0.931313 8.76428 1.05669C8.76428 1.18207 8.73586 1.30621 8.68066 1.42201C8.62545 1.53781 8.54454 1.643 8.44256 1.73154L3.74073 5.82251H30.6344C30.9248 5.82251 31.2034 5.92294 31.4087 6.10171C31.6141 6.28048 31.7295 6.52294 31.7295 6.77576C31.7295 7.02857 31.6141 7.27103 31.4087 7.44981C31.2034 7.62857 30.9248 7.729 30.6344 7.729H3.74072L8.44256 11.82C8.64819 11.999 8.76371 12.2417 8.76371 12.4948C8.76371 12.748 8.64819 12.9907 8.44256 13.1697C8.23693 13.3487 7.95804 13.4492 7.66723 13.4492C7.37643 13.4492 7.09754 13.3487 6.89191 13.1697L0.321358 7.45061C0.219376 7.36207 0.138464 7.25689 0.0832577 7.14108C0.0280514 7.02528 -0.000366211 6.90114 -0.000366211 6.77576C-0.000366211 6.65038 0.0280514 6.52625 0.0832577 6.41044C0.138464 6.29464 0.219376 6.18945 0.321358 6.10091L6.89191 0.381836C6.99363 0.293076 7.11448 0.222649 7.24752 0.174591C7.38056 0.126541 7.52319 0.101807 7.66723 0.101807C7.81128 0.101807 7.9539 0.126541 8.08694 0.174591Z" fill="black"/>
</svg>
