<svg width="266" height="163" viewBox="0 0 266 163" fill="none" xmlns="http://www.w3.org/2000/svg">
<circle cx="261.92" cy="3.52358" r="3.52358" transform="rotate(90 261.92 3.52358)" fill="#3789FF"/>
<circle cx="261.92" cy="55.2028" r="3.52358" transform="rotate(90 261.92 55.2028)" fill="#3789FF"/>
<circle cx="261.92" cy="106.882" r="3.52358" transform="rotate(90 261.92 106.882)" fill="#3789FF"/>
<circle cx="261.92" cy="158.561" r="3.52358" transform="rotate(90 261.92 158.561)" fill="#3789FF"/>
<circle cx="210.24" cy="3.52358" r="3.52358" transform="rotate(90 210.24 3.52358)" fill="#3789FF"/>
<circle cx="210.24" cy="55.2028" r="3.52358" transform="rotate(90 210.24 55.2028)" fill="#3789FF"/>
<circle cx="210.24" cy="106.882" r="3.52358" transform="rotate(90 210.24 106.882)" fill="#3789FF"/>
<circle cx="210.24" cy="158.561" r="3.52358" transform="rotate(90 210.24 158.561)" fill="#3789FF"/>
<circle cx="158.561" cy="3.52358" r="3.52358" transform="rotate(90 158.561 3.52358)" fill="#3789FF"/>
<circle cx="158.561" cy="55.2028" r="3.52358" transform="rotate(90 158.561 55.2028)" fill="#3789FF"/>
<circle cx="158.561" cy="106.882" r="3.52358" transform="rotate(90 158.561 106.882)" fill="#3789FF"/>
<circle cx="158.561" cy="158.561" r="3.52358" transform="rotate(90 158.561 158.561)" fill="#3789FF"/>
<circle cx="106.882" cy="3.52358" r="3.52358" transform="rotate(90 106.882 3.52358)" fill="#3789FF"/>
<circle cx="106.882" cy="55.2028" r="3.52358" transform="rotate(90 106.882 55.2028)" fill="#3789FF"/>
<circle cx="106.882" cy="106.882" r="3.52358" transform="rotate(90 106.882 106.882)" fill="#3789FF"/>
<circle cx="106.882" cy="158.561" r="3.52358" transform="rotate(90 106.882 158.561)" fill="#3789FF"/>
<circle cx="55.2027" cy="3.52358" r="3.52358" transform="rotate(90 55.2027 3.52358)" fill="#3789FF"/>
<circle cx="55.2027" cy="55.2028" r="3.52358" transform="rotate(90 55.2027 55.2028)" fill="#3789FF"/>
<circle cx="55.2027" cy="106.882" r="3.52358" transform="rotate(90 55.2027 106.882)" fill="#3789FF"/>
<circle cx="55.2027" cy="158.561" r="3.52358" transform="rotate(90 55.2027 158.561)" fill="#3789FF"/>
<circle cx="3.52354" cy="3.52358" r="3.52358" transform="rotate(90 3.52354 3.52358)" fill="#3789FF"/>
<circle cx="3.52354" cy="55.2028" r="3.52358" transform="rotate(90 3.52354 55.2028)" fill="#3789FF"/>
<circle cx="3.52354" cy="106.882" r="3.52358" transform="rotate(90 3.52354 106.882)" fill="#3789FF"/>
<circle cx="3.52354" cy="158.561" r="3.52358" transform="rotate(90 3.52354 158.561)" fill="#3789FF"/>
</svg>
