<svg width="473" height="214" viewBox="0 0 473 214" fill="none" xmlns="http://www.w3.org/2000/svg">
<circle cx="469.439" cy="3.72176" r="3.52358" transform="rotate(90 469.439 3.72176)" fill="#3789FF"/>
<circle cx="469.439" cy="55.4005" r="3.52358" transform="rotate(90 469.439 55.4005)" fill="#3789FF"/>
<circle cx="469.439" cy="107.08" r="3.52358" transform="rotate(90 469.439 107.08)" fill="#3789FF"/>
<circle cx="469.439" cy="158.759" r="3.52358" transform="rotate(90 469.439 158.759)" fill="#3789FF"/>
<circle cx="469.439" cy="210.438" r="3.52358" transform="rotate(90 469.439 210.438)" fill="#3789FF"/>
<circle cx="417.76" cy="3.72133" r="3.52358" transform="rotate(90 417.76 3.72133)" fill="#3789FF"/>
<circle cx="417.76" cy="55.4005" r="3.52358" transform="rotate(90 417.76 55.4005)" fill="#3789FF"/>
<circle cx="417.76" cy="107.08" r="3.52358" transform="rotate(90 417.76 107.08)" fill="#3789FF"/>
<circle cx="417.76" cy="158.759" r="3.52358" transform="rotate(90 417.76 158.759)" fill="#3789FF"/>
<circle cx="417.76" cy="210.438" r="3.52358" transform="rotate(90 417.76 210.438)" fill="#3789FF"/>
<circle cx="366.081" cy="3.72133" r="3.52358" transform="rotate(90 366.081 3.72133)" fill="#3789FF"/>
<circle cx="366.081" cy="55.4005" r="3.52358" transform="rotate(90 366.081 55.4005)" fill="#3789FF"/>
<circle cx="366.081" cy="107.08" r="3.52358" transform="rotate(90 366.081 107.08)" fill="#3789FF"/>
<circle cx="366.081" cy="158.759" r="3.52358" transform="rotate(90 366.081 158.759)" fill="#3789FF"/>
<circle cx="366.081" cy="210.438" r="3.52358" transform="rotate(90 366.081 210.438)" fill="#3789FF"/>
<circle cx="314.402" cy="3.72133" r="3.52358" transform="rotate(90 314.402 3.72133)" fill="#3789FF"/>
<circle cx="314.402" cy="55.4005" r="3.52358" transform="rotate(90 314.402 55.4005)" fill="#3789FF"/>
<circle cx="314.402" cy="107.08" r="3.52358" transform="rotate(90 314.402 107.08)" fill="#3789FF"/>
<circle cx="314.402" cy="158.759" r="3.52358" transform="rotate(90 314.402 158.759)" fill="#3789FF"/>
<circle cx="314.402" cy="210.438" r="3.52358" transform="rotate(90 314.402 210.438)" fill="#3789FF"/>
<circle cx="262.723" cy="3.72133" r="3.52358" transform="rotate(90 262.723 3.72133)" fill="#3789FF"/>
<circle cx="262.723" cy="55.4005" r="3.52358" transform="rotate(90 262.723 55.4005)" fill="#3789FF"/>
<circle cx="262.723" cy="107.08" r="3.52358" transform="rotate(90 262.723 107.08)" fill="#3789FF"/>
<circle cx="262.723" cy="158.759" r="3.52358" transform="rotate(90 262.723 158.759)" fill="#3789FF"/>
<circle cx="262.723" cy="210.438" r="3.52358" transform="rotate(90 262.723 210.438)" fill="#3789FF"/>
<circle cx="211.043" cy="3.72133" r="3.52358" transform="rotate(90 211.043 3.72133)" fill="#3789FF"/>
<circle cx="211.043" cy="55.4005" r="3.52358" transform="rotate(90 211.043 55.4005)" fill="#3789FF"/>
<circle cx="211.043" cy="107.08" r="3.52358" transform="rotate(90 211.043 107.08)" fill="#3789FF"/>
<circle cx="211.043" cy="158.759" r="3.52358" transform="rotate(90 211.043 158.759)" fill="#3789FF"/>
<circle cx="211.043" cy="210.438" r="3.52358" transform="rotate(90 211.043 210.438)" fill="#3789FF"/>
<circle cx="159.364" cy="3.72133" r="3.52358" transform="rotate(90 159.364 3.72133)" fill="#3789FF"/>
<circle cx="159.364" cy="55.4005" r="3.52358" transform="rotate(90 159.364 55.4005)" fill="#3789FF"/>
<circle cx="159.364" cy="107.08" r="3.52358" transform="rotate(90 159.364 107.08)" fill="#3789FF"/>
<circle cx="159.364" cy="158.759" r="3.52358" transform="rotate(90 159.364 158.759)" fill="#3789FF"/>
<circle cx="159.364" cy="210.438" r="3.52358" transform="rotate(90 159.364 210.438)" fill="#3789FF"/>
<circle cx="107.685" cy="55.4005" r="3.52358" transform="rotate(90 107.685 55.4005)" fill="#3789FF"/>
<circle cx="107.685" cy="107.08" r="3.52358" transform="rotate(90 107.685 107.08)" fill="#3789FF"/>
<circle cx="107.685" cy="158.759" r="3.52358" transform="rotate(90 107.685 158.759)" fill="#3789FF"/>
<circle cx="107.685" cy="210.438" r="3.52358" transform="rotate(90 107.685 210.438)" fill="#3789FF"/>
<circle cx="56.0057" cy="3.72133" r="3.52358" transform="rotate(90 56.0057 3.72133)" fill="#3789FF"/>
<circle cx="56.0057" cy="55.4005" r="3.52358" transform="rotate(90 56.0057 55.4005)" fill="#3789FF"/>
<circle cx="56.0057" cy="107.08" r="3.52358" transform="rotate(90 56.0057 107.08)" fill="#3789FF"/>
<circle cx="56.0057" cy="158.759" r="3.52358" transform="rotate(90 56.0057 158.759)" fill="#3789FF"/>
<circle cx="56.0057" cy="210.438" r="3.52358" transform="rotate(90 56.0057 210.438)" fill="#3789FF"/>
<circle cx="4.32652" cy="3.72133" r="3.52358" transform="rotate(90 4.32652 3.72133)" fill="#3789FF"/>
<circle cx="4.32652" cy="55.4005" r="3.52358" transform="rotate(90 4.32652 55.4005)" fill="#3789FF"/>
<circle cx="4.32652" cy="107.08" r="3.52358" transform="rotate(90 4.32652 107.08)" fill="#3789FF"/>
<circle cx="4.32652" cy="158.759" r="3.52358" transform="rotate(90 4.32652 158.759)" fill="#3789FF"/>
<circle cx="4.32652" cy="210.438" r="3.52358" transform="rotate(90 4.32652 210.438)" fill="#3789FF"/>
</svg>
