<svg width="52" height="23" viewBox="0 0 52 23" fill="none" xmlns="http://www.w3.org/2000/svg">
<path fill-rule="evenodd" clip-rule="evenodd" d="M38.5445 1.01417C38.3276 1.09251 38.1305 1.20733 37.9647 1.35204C37.7984 1.49639 37.6665 1.66788 37.5765 1.85667C37.4865 2.04546 37.4402 2.24785 37.4402 2.45225C37.4402 2.65665 37.4865 2.85904 37.5765 3.04784C37.6665 3.23663 37.7984 3.40811 37.9647 3.55246L45.6309 10.2227H1.78532C1.31183 10.2227 0.857723 10.3864 0.52291 10.6778C0.188096 10.9692 0 11.3644 0 11.7765C0 12.1886 0.188096 12.5838 0.52291 12.8752C0.857723 13.1666 1.31183 13.3303 1.78532 13.3303H45.6299L37.9647 19.9996C37.6295 20.2914 37.4411 20.6872 37.4411 21.0998C37.4411 21.5125 37.6295 21.9082 37.9647 22.2C38.2999 22.4918 38.7546 22.6558 39.2287 22.6558C39.7028 22.6558 40.1575 22.4918 40.4927 22.2L51.2047 12.8763C51.371 12.7319 51.5029 12.5604 51.5929 12.3716C51.6829 12.1828 51.7292 11.9804 51.7292 11.776C51.7292 11.5716 51.6829 11.3692 51.5929 11.1805C51.5029 10.9917 51.371 10.8202 51.2047 10.6758L40.4927 1.35204C40.3269 1.20733 40.1299 1.09251 39.913 1.01417C39.6961 0.935829 39.4635 0.895508 39.2287 0.895508C38.9939 0.895508 38.7614 0.935829 38.5445 1.01417Z" fill="black"/>
</svg>
